<svg xmlns="http://www.w3.org/2000/svg" width="18" height="22" viewBox="0 0 18 22">
  <path fill="#808080" d="M4.784 3.194C4.784 1.43 6.224 0 8 0s3.216 1.43 3.216 3.194S9.776 6.388 8 6.388s-3.216-1.43-3.216-3.194zm10.802 8.352c-1.403-1.396-2.809-2.79-4.213-4.185-.175-.169-.356-.338-.575-.449-.286-.152-.615-.205-.937-.204l-3.813.001c-.298.004-.602.058-.865.204-.345.181-.589.492-.868.754-1.294 1.274-2.567 2.568-3.858 3.844-.221.205-.397.469-.443.769-.073.414.15.853.518 1.055.312.185.713.191 1.039.039.348-.151.575-.465.847-.715.722-.73 1.454-1.449 2.171-2.184l.001 2.419c2.065.421 4.718.423 6.783.001l-.005-.002v-2.431c.904.896 1.806 1.795 2.71 2.69.247.242.6.385.948.334.52-.063.968-.527.975-1.054.011-.342-.177-.653-.415-.886zM5.153 18.121l1.869-1.857c-.479-1.072-1.48-2.069-2.56-2.546l-.002-.001c-.749.747-1.504 1.488-2.249 2.238-.592.696-.437 1.799.152 2.448.918.956 1.846 1.902 2.765 2.856.175.162.318.356.514.496.255.189.59.293.907.224.499-.092.903-.559.906-1.066.019-.324-.13-.64-.354-.869-.648-.643-1.291-1.29-1.948-1.923zm6.387-4.405l-.003.001c-1.079.477-2.08 1.474-2.56 2.546.623.619 1.246 1.239 1.87 1.857-.656.634-1.301 1.28-1.948 1.923-.226.229-.374.545-.354.869.003.507.406.974.906 1.066.316.069.651-.034.907-.224.195-.14.338-.334.513-.496.919-.955 1.847-1.901 2.765-2.856.589-.649.745-1.752.153-2.448-.745-.75-1.5-1.491-2.249-2.238z"/>
</svg>