<svg xmlns="http://www.w3.org/2000/svg" id="slow-xs-lounge" viewBox="0 0 64 64"><path d="M.06 32A31.94 31.94 0 1 1 32 63.94 31.93 31.93 0 0 1 .06 32" fill="#f5f5f5"></path><path d="M45.23 31.11a4.85 4.85 0 0 0-.95.11v-6.65A3.29 3.29 0 0 0 41 21.3H26.24a3.29 3.29 0 0 0-3.32 3.27v6.59a3.75 3.75 0 0 0-.47-.05A4.19 4.19 0 0 0 21 39.27v10.07a3.3 3.3 0 0 0 3.32 3.27h19a3.3 3.3 0 0 0 3.32-3.27V39.26a4.18 4.18 0 0 0 2.85-3.94 4.24 4.24 0 0 0-4.26-4.21z" fill="#9d9c9c"></path><path d="M44.81 28.57L39 25.27a8.1 8.1 0 0 0-2.31-.47h-6.18a6.68 6.68 0 0 0-1.83.47l-5.83 3.3a2.34 2.34 0 0 0-.85 3.17 2.4 2.4 0 0 0 3.24.85l3.39-2.81v8.31A1.88 1.88 0 0 0 30.51 40h6.17a1.89 1.89 0 0 0 1.9-1.87v-8.59l3.86 3.08a2.4 2.4 0 0 0 3.24-.85 2.32 2.32 0 0 0-.84-3.18" fill="#828181"></path><path d="M29.05 20.37a4.27 4.27 0 0 1 4.26-4.27 4.27 4.27 0 1 1-4.26 4.27zm9.37 17.13a2.39 2.39 0 0 0-3.14 1.16l-2.61 5.65-.73-6a2.38 2.38 0 0 0-4.72.57l1.55 12.52a2.36 2.36 0 0 0 2.64 2 1.86 1.86 0 0 0 .34-.07A2.4 2.4 0 0 0 34.29 52l5.31-11.41a2.32 2.32 0 0 0-1.18-3.09zM16.76 15.09h-.15a.14.14 0 0 0-.14.13v4.13l-2 1.78a.23.23 0 0 0 0 .3h.05a.22.22 0 0 0 .3 0l2-1.79a.14.14 0 0 0 .09-.13v-4.28a.15.15 0 0 0-.15-.14zm5.91 4a6 6 0 1 1-6-5.92 6 6 0 0 1 6 5.94zm-1 0a5 5 0 1 0-5 4.94 5 5 0 0 0 5-4.92z" fill="#0992b2"></path></svg>