<svg xmlns="http://www.w3.org/2000/svg" id="pre-paid-seats" viewBox="0 0 64 64"><path d="M.06 32A31.94 31.94 0 1 1 32 63.94 31.93 31.93 0 0 1 .06 32" fill="#f5f5f5"></path><path d="M33 19a4 4 0 1 1 4 4 4 4 0 0 1-4-4zm4 5h-.16A3.84 3.84 0 0 0 33 27.84V35h-7a5 5 0 0 0-5 5v9.5a2.5 2.5 0 0 0 5 0V42a2 2 0 0 1 2-2h11a2 2 0 0 0 2-2V28a4 4 0 0 0-4-4z" fill="#9f9e9e"></path><path d="M28 17.5a3.5 3.5 0 0 0-3.5-3.5h-6a3.5 3.5 0 0 0-3.5 3.5v9a3.5 3.5 0 0 0 3.5 3.5h6a3.5 3.5 0 0 0 3.5-3.5zm-3 9a.5.5 0 0 1-.5.5h-6a.5.5 0 0 1-.5-.5v-9a.5.5 0 0 1 .5-.5h6a.5.5 0 0 1 .5.5zM46 29v9a7 7 0 0 1-7 7v7h-4v-7h-6a2 2 0 0 1 0-4h10a3 3 0 0 0 3-3v-1H29a2 2 0 0 1 0-4h13v-4a2 2 0 0 1 4 0z" fill="#0892b3"></path></svg>