<svg xmlns="http://www.w3.org/2000/svg" id="traveller-seated"><path d="M0 0h24v24H0z" fill="none"></path><g transform="matrix(-1 0 0 1 14 0)"><path d="M10 12v3H5a2 2 0 0 0-2 2v3.5a1.5 1.5 0 0 1-3 0V16a4 4 0 0 1 4-4h6z"></path><path d="M6 15h4c.44 0 1-.507 1-1V8.5a2.5 2.5 0 0 0-5 0V15z"></path><path d="M7 22h3v-6H7zM7 18H5a1 1 0 0 1 0-2h2v2zM14 14c0 2.284-1.79 4-4 4v-2c1.2.03 2-.536 2-2V9a1 1 0 0 1 2 0v5z"></path><path d="M12 13H4c-.462 0-1-.448-1-1s.538-1 1-1h8v2z"></path><circle fill-rule="nonzero" cx="8.5" cy="2.5" r="2.5"></circle></g></svg>