<svg xmlns="http://www.w3.org/2000/svg" id="q-jump" viewBox="0 0 64 64"><path d="M.06 32A31.94 31.94 0 1 1 32 63.94 31.93 31.93 0 0 1 .06 32" fill="#f5f5f5"></path><path d="M20.39 9.62a1.23 1.23 0 0 0-1.71.2L10.3 20.41a1.21 1.21 0 0 0 .21 1.7l7.6 5.89a1.22 1.22 0 0 0 1.71-.21l2.32-2.93 3.8-4.81 2.25-2.85a1.19 1.19 0 0 0-.2-1.69z" fill="#0892b3"></path><path d="M49.68 50.27l-12.46-8.59a2.68 2.68 0 0 0 .11-.49c.45-3.39 1.06-8.32 1.19-9.86.25-3.08-2.24-3.93-4.67-4.52a2.41 2.41 0 0 0-2.93.85l.57 12.25-.11.73a4.67 4.67 0 0 0 2.12 4.63l.75.48 12.06 8.61c2.82 2.16 6.14-2 3.37-4.09" fill="#9d9c9c"></path><path d="M34.25 45.75l.33.23-3.53 6.31c-.95 2.16-3.47 1.78-4.65.35l-5.73-6.37a2.43 2.43 0 1 1 3.71-3.12l3.37 3.63 3.7-6.57-.07.43a4.67 4.67 0 0 0 2.12 4.63zm9.33-25a4.58 4.58 0 1 0-3.89 5 4.49 4.49 0 0 0 3.89-4.96zm-8.52 7.49l-6.68-5.44a2.66 2.66 0 1 0-3.24 4.2l6.68 5.44a2.66 2.66 0 1 0 3.24-4.16z" fill="#828181"></path></svg>