<svg xmlns="http://www.w3.org/2000/svg" id="dietary-requirements" viewBox="0 0 64 64"><path d="M.06 32A31.94 31.94 0 1 1 32 63.94 31.93 31.93 0 0 1 .06 32" fill="#f5f5f5"></path><path d="M46.12 54.27a2.17 2.17 0 0 1-3.24 0c-2-3.37 0-25.27 0-25.27h3.24s2 21.9 0 25.27m-26 0a2.16 2.16 0 0 1-3.23 0c-2-3.37 0-25.27 0-25.27h3.23s2 21.9 0 25.27m14 0a2.17 2.17 0 0 1-3.24 0c-2-3.37 0-25.27 0-25.27h3.24s2 21.9 0 25.27" fill="#9d9c9c"></path><path d="M50 21c-.05-2-.46-8.07-.46-8.07a.87.87 0 0 0-.86-1c-.57 0-.84.43-.86 1-.07 1.8.09 6.83 0 7.91l-1.93.06c-.06-1 0-6.13 0-8A.86.86 0 0 0 45 12c-.55 0-.82.43-.85 1-.06 1.79 0 6.86 0 7.94h-1.88c-.11-1.07 0-6.1 0-7.89 0-.53-.3-1-.86-1a.86.86 0 0 0-.85 1S40.05 19 40 21v3.76A3.06 3.06 0 0 0 42.91 28h4.2A3.06 3.06 0 0 0 50 24.79v-3.76m-25-.52C25 25.2 22.08 29 18.5 29S12 25.2 12 20.51 14.92 12 18.5 12s6.5 3.8 6.5 8.51m10-8.08L34.92 31s-6.23.32-6.79-1.44S29 13.82 30 12.59s5-.16 5-.16" fill="#0992b2"></path></svg>