<svg xmlns="http://www.w3.org/2000/svg" id="extra-bags" viewBox="0 0 64 64"><path d="M 0.1 32 A 31.9 31.9 0 1 1 32 63.9 A 31.9 31.9 0 0 1 0.1 32" fill="#f5f5f5"></path><path d="M 12.3 25.4 a 3.8 3.8 0 0 1 4.1 -4 h 31.9 a 3.8 3.8 0 0 1 4.1 4 V 42.6 a 3.8 3.8 0 0 1 -4.1 4 H 16.4 a 3.8 3.8 0 0 1 -4.1 -4 z" fill="#0892b3"></path><path d="M 22.6 21.9 s -0.7 -2.9 0.6 -4.3 a 3.9 3.9 0 0 1 2.6 -1.3 h 11.7 a 3.3 3.3 0 0 1 2.5 1.4 a 7.3 7.3 0 0 1 0.8 4.1 h -3.2 l -0.7 -2.7 h -10.4 l -0.7 2.7 z" fill="#a09f9f"></path></svg>