<svg xmlns="http://www.w3.org/2000/svg" id="flight-and-bag-cover" viewBox="0 0 64 64"><path d="M.06 32A31.94 31.94 0 1 1 32 63.94 31.93 31.93 0 0 1 .06 32" fill="#f5f5f5"></path><path d="M44 17.87H20.14A2.91 2.91 0 0 0 17.06 21v13.7a2.91 2.91 0 0 0 3.08 3.17H44a2.92 2.92 0 0 0 3.08-3.17V21A2.91 2.91 0 0 0 44 17.87zm-7.14 15l-.67.76-3.1-5.19L30.3 31l.33 2.12-.45.51-1.39-2-2.13-1.13.45-.51 2.15.07 2.19-3-5.53-2.46.68-.76 6.43 1c2.49-3 4.5-3 4.5-3s.29 2-2.43 4.84z" fill="#0892b3"></path><path d="M39.53 17.87h-2a2 2 0 0 0-2-2h-7a2 2 0 0 0-2 2h-2a4 4 0 0 1 4-4h7a4 4 0 0 1 4 4m.53 26a1.82 1.82 0 0 0-2-2h-6c-1.5 0-4.53-1.44-6.53-1.44a10.72 10.72 0 0 0-5.5 1.5l-5 3 3.5 8.5 2-1.77a2 2 0 0 1 1.6-.49l8.94 1.22h9.84a4 4 0 0 0 2.84-1.17l5.55-5.52a2.5 2.5 0 0 0 0-3.53 1.54 1.54 0 0 0-.19-.17 2.58 2.58 0 0 0-3.43.24l-4.1 4.11a2.23 2.23 0 0 1-1.52.52h-7a.47.47 0 0 1-.53-.44.58.58 0 0 1 .53-.56h5a1.88 1.88 0 0 0 2-2" fill="#a09f9f"></path></svg>