<svg xmlns="http://www.w3.org/2000/svg" id="special-request" viewBox="0 0 64 64"><path d="M.06 32A31.94 31.94 0 1 1 32 63.94 31.93 31.93 0 0 1 .06 32" fill="#f5f5f5"></path><path d="M42.38 47L47 44.19l-1.17-1.13-2.39 1.33-5.34-10.28H27.53v-3.4h7.51v-2.28h-7.51v-5.64A3.4 3.4 0 1 0 24 19.4a3.31 3.31 0 0 0 1.18 2.52v14.32h11.28z" fill="#0992b2"></path><path d="M19 37.46A10.38 10.38 0 0 0 29.2 48a9.58 9.58 0 0 0 8.8-5.76l-2.63-4.68-10.71-.1V28A10.62 10.62 0 0 0 19 37.46" fill="#9d9c9c"></path></svg>