<svg xmlns="http://www.w3.org/2000/svg" viewBox="0 0 606 91"><path d="M434.7 90.2c5.8 0 10.6-4.7 10.6-10.6 0-5.8-4.7-10.6-10.6-10.6-5.8 0-10.6 4.7-10.6 10.6 0 5.9 4.8 10.6 10.6 10.6" fill="#00b2e3"/><path d="M380.5 61.8V42.5c0-5.3-3.3-9.4-8.1-9.4-5.7 0-8.1 4.3-8.1 9.8V61c0 5.3 2.4 8.7 8.3 8.7.6 0 1.2-.1 1.8-.2V71c0 10.2 3.7 14.5 5.2 16.6-.5.5-5.2 2.1-7.5 2.3-13.8 2.9-36.3-6.6-36.3-30.2V44.6c0-22.4 16.7-32 34.6-31.7 3.8.1 7.2 1 10.2 2.4v-3h25.9v48.3c0 3 .6 5.1 5.4 5.1 1.2 0 3.3-.3 5.4-.6V87c-4.7 1.5-10.2 2.6-15.8 2.6-6.3 0-11.1-1.5-14.6-4.2-7.9-6.3-6.4-23.6-6.4-23.6M0 88.6h28.9v-22l6.1-7.9 9.9 29.9h30.9L58.1 39.9l18.2-26.3H48.1l-19.2 28V0H0v88.6zm102.8 1.6c10.2 0 18.2-4.3 24.2-12.9h.3v11.3h28.4v-75h-28.9v42.6c0 8.3-4.5 12.5-8.9 12.5-8.2 0-9.2-6.8-9.2-11V13.6H79.8v55.5c0 15.7 12.9 21.1 23 21.1m86.2 0c5.6 0 11.1-1.1 15.9-2.6V65.8c-2.1.3-4.2.6-5.4.6-4.9 0-5.4-2.1-5.4-5.1V0H165v70.2c-.1 13.4 10.1 20 24 20m43 0c10.2 0 18.2-4.3 24.2-12.9h.3v11.3h28.4v-75H256v42.6c0 8.3-4.5 12.5-8.9 12.5-8.2 0-9.2-6.8-9.2-11V13.6H209v55.5c-.1 15.7 12.8 21.1 23 21.1m85.1 0c5.6 0 11.1-1.1 15.9-2.6V65.8c-2.1.3-4.2.6-5.4.6-4.9 0-5.4-2.1-5.4-5.1V0h-29.1v70.2c0 13.4 10.1 20 24 20m222.6-40.9H555V55h.2c3.2-4.6 7.6-6.6 13-6.6 4.3 0 9.7 1.5 11.7 6.6h.2c3.2-4.6 7.9-6.6 13.4-6.6s12.4 3 12.4 11.4v29.8h-15.6V65.9c0-2.2-.5-5.9-4.9-5.9-2.4 0-4.8 2.2-4.8 6.7v22.9H565V65.9c0-2.2-.5-5.9-4.9-5.9-2.4 0-4.8 2.2-4.8 6.7v22.9h-15.6V49.3zm-25.8 30.3c3.1 0 4.4-2.2 4.4-4.9v-10c0-2.9-1.8-5.2-4.5-5.2-3.1 0-4.5 2.4-4.5 5.4v9.9c0 2.9 1.4 4.8 4.6 4.8m-.1 10.9c-9.5 0-20.2-3.5-20.2-16.5v-8.2c0-12.3 10.1-17.4 20-17.4 9.6 0 20.4 4.1 20.4 17.1V74c0 12.4-10.9 16.5-20.2 16.5m-43.6.1c-9.4 0-20.2-4.1-20.2-16.5v-8.2c0-12.4 10.8-17.5 20.2-17.5 10.1 0 19.4 5 19.4 14.3v2.5h-15v-1.6c0-3-1.7-4.3-4.2-4.3-3.1 0-4.7 1.7-4.7 4.9v10.4c0 3.2 1.6 5.1 4.7 5.1 2.5 0 4.2-1.3 4.2-4.3v-1.6h15v3.1c0 9.3-9.4 13.7-19.4 13.7" fill="#80bc00"/></svg>