<?xml version="1.0" encoding="utf-8"?>
<svg xmlns="http://www.w3.org/2000/svg" height="48" width="48" viewBox="0 0 48 48">
  <g>
    <path id="path1" transform="rotate(0,24,24) translate(5,6.18694237374777) scale(1.18753694857878,1.18753694857878)  " fill="#262626" d="M21.950989,24.340005C20.927005,24.340005 20.093999,25.161004 20.093999,26.170006 20.093999,27.179008 20.927005,28.000007 21.950989,28.000007 22.975004,28.000007 23.80801,27.179008 23.80801,26.170006 23.80801,25.161004 22.975004,24.340005 21.950989,24.340005z M11.476001,24.340001C10.451999,24.340001 9.6189985,25.161001 9.6189985,26.170001 9.6189985,27.179 10.451999,28 11.476001,28 12.500002,28 13.333004,27.179 13.333004,26.170001 13.333004,25.161001 12.500002,24.340001 11.476001,24.340001z M21.950989,22.340006C24.077998,22.340006 25.808004,24.058007 25.808004,26.170006 25.808004,28.282004 24.077998,30.000006 21.950989,30.000006 19.824011,30.000006 18.094005,28.282004 18.094004,26.170006 18.094005,24.058007 19.824011,22.340006 21.950989,22.340006z M11.476001,22.340002C13.603004,22.340002 15.333006,24.058001 15.333006,26.170001 15.333006,28.281999 13.603004,29.999999 11.476001,29.999999 9.3489981,29.999999 7.6189957,28.281999 7.6189957,26.170001 7.6189957,24.058001 9.3489981,22.340002 11.476001,22.340002z M23.999006,3.9559975C24.551005,3.9559975,24.999006,4.4039974,24.999006,4.9559975L24.999006,7 27.042993,7C27.594992,7 28.042991,7.448 28.042991,8 28.042991,8.552 27.594992,9 27.042993,9L24.999006,9 24.999006,11.044001C24.999006,11.596001 24.551005,12.044001 23.999006,12.044001 23.447006,12.044001 22.999006,11.596001 22.999006,11.044001L22.999006,9 20.955002,9C20.403003,9 19.955003,8.552 19.955003,8 19.955003,7.448 20.403003,7 20.955002,7L22.999006,7 22.999006,4.9559975C22.999006,4.4039974,23.447006,3.9559975,23.999006,3.9559975z M23.999006,2C20.690006,2 17.999006,4.691 17.999006,8 17.999006,11.309 20.690006,14 23.999006,14 27.308005,14 29.999005,11.309 29.999005,8 29.999005,4.691 27.308005,2 23.999006,2z M23.999006,0C28.410006,0 31.999005,3.5890007 31.999005,8 31.999005,11.032562 30.302642,13.676601 27.809055,15.032977L27.538283,15.171856 26.448695,19.561C26.207698,20.42,25.438707,21,24.570717,21L8.8098993,21C7.8989096,21,7.1209183,20.384,6.9179211,19.503L4.2119522,7.2959986 1.9409771,7.3579988 1.9999771,9.1359987C1.9999771,9.6879988 1.5519829,10.135999 0.99998856,10.135999 0.44699478,10.135999 0,9.6879988 0,9.1359987L0,7.2849989C0,6.2229977,0.8699913,5.3579979,1.9409771,5.3579979L4.2699509,5.3579979C5.181941,5.3579979,5.9609318,5.9749985,6.1629295,6.8569984L8.867898,19.062 24.527718,19 25.29787,15.893986 25.215645,15.907648C24.818844,15.968456 24.412537,16 23.999006,16 20.277224,16 17.140636,13.444941 16.251316,9.9968958L16.182271,9.6985054 8.878129,8.4631577C8.3331432,8.3721676 7.9671535,7.8552256 8.0591507,7.3112869 8.1396494,6.8353405 8.54706,6.4941292 9.0100727,6.4785585 9.0762167,6.4763346 9.1434965,6.4807558 9.2111197,6.4923792L16.007452,7.6409931 16.009435,7.5889616C16.224121,3.3681927,19.725849,0,23.999006,0z" />
  </g>
</svg>

