<?xml version="1.0" encoding="utf-8"?>
<svg xmlns="http://www.w3.org/2000/svg" height="48" width="48" viewBox="0 0 48 48">
  <g>
    <path id="path1" transform="rotate(0,24,24) translate(5.50007701358608,5) scale(1.15624518665087,1.15624518665087)  " fill="#262626" d="M16,1.8820102C8.2150267,1.8820105 1.8820189,7.3380239 1.882019,14.046055 1.8820189,17.732058 3.6640013,21.138077 6.6470336,23.158087 7.1670531,23.513085 7.5440062,27.038092 7.7350463,29.292113 9.4120482,27.878105 11.855041,26.000094 12.469055,26.000094L12.498047,26.000094 13.235046,26.024096C14.138,26.1561 15.072998,26.252093 16,26.252093 23.785034,26.252093 30.118042,20.774077 30.118042,14.066044 30.118042,7.3590353 23.785034,1.8820105 16,1.8820102z M16,0C24.822021,0 32,6.3020246 32,14.046055 32,21.792086 24.822021,28.094095 16,28.094095 14.938049,28.094095 13.934021,27.947106 12.963013,27.805107L12.630005,27.757103C11.564026,28.577097,7.785034,31.583121,7.5420531,31.781119L6.173889,32.865 5.9999999,31.079106C5.9780272,30.66411 5.4260253,25.853089 5.2480467,24.476086 1.9560546,22.085085 -1.3640714E-07,18.215061 1.4210855E-14,14.046055 -1.3640714E-07,6.3020246 7.1780394,0 16,0z" />
  </g>
</svg>

