<?xml version="1.0" encoding="utf-8"?>
<svg xmlns="http://www.w3.org/2000/svg" height="48" width="48" viewBox="0 0 48 48">
  <g>
    <path id="path1" transform="rotate(0,24,24) translate(12.125,5) scale(1.1875,1.1875)  " fill="#262626" d="M9,25.5L11,25.5C11.552,25.5,12,25.948,12,26.5L12,27.5C12,28.052,11.552,28.5,11,28.5L9,28.5C8.448,28.5,8,28.052,8,27.5L8,26.5C8,25.948,8.448,25.5,9,25.5z M2,25L2,28C2,29.103027,2.8970032,30,4,30L16,30C17.102997,30,18,29.103027,18,28L18,25z M2,9L2,23 18,23 18,9z M4,2C2.8970032,2,2,2.8969727,2,4L2,7 18,7 18,4C18,2.8969727,17.102997,2,16,2z M4,0L16,0C18.209015,0,20,1.7910156,20,4L20,28C20,30.208984,18.209015,32,16,32L4,32C1.7909851,32,0,30.208984,0,28L0,4C0,1.7910156,1.7909851,0,4,0z" />
  </g>
</svg>

