<?xml version="1.0" encoding="utf-8"?>
<svg xmlns="http://www.w3.org/2000/svg" height="48" width="48" viewBox="0 0 48 48">
  <g>
    <path id="path1" transform="rotate(0,24,24) translate(5.0000147223455,5) scale(1.18749985843899,1.18749985843899)  " fill="#262626" d="M2.0000004,5.000005L2.0000004,30.000005 27,30.000005 27,11.038625 11.220929,26.999011 4.9999858,27.022012 4.9999858,20.862008 20.888613,5.000005z M27.690781,2.0000008C27.047787,2.0000008,26.450792,2.2530009,26.010796,2.7120013L6.9999677,21.691009 6.9999677,25.014011 10.382937,25.002012 29.386765,5.7810025C30.204758,4.9290022,30.204758,3.5780015,29.376764,2.715001L29.335766,2.6720013C28.898769,2.2380009,28.316774,2.0000008,27.69178,2.0000008z M27.690781,0L27.69178,0C28.885769,0,29.99576,0.47100019,30.816752,1.3270004L30.883751,1.3980005C32.393738,3.0400013,32.371739,5.5610025,30.817753,7.1770031L29,9.0156434 29,32.000005 0,32.000005 0,3.0000052 22.89197,3.0000052 24.582808,1.3120005C25.387802,0.47100019,26.496792,0,27.690781,0z" />
  </g>
</svg>

