<?xml version="1.0" encoding="utf-8"?>
<svg xmlns="http://www.w3.org/2000/svg" height="48" width="48" viewBox="0 0 48 48">
  <g>
    <path id="path1" transform="rotate(0,24,24) translate(9.74999915063376,5) scale(1.18750007078052,1.18750007078052)  " fill="#262626" d="M11.453992,23.435019C12.021986,23.435019 12.495986,23.604026 12.868972,23.943015 13.242996,24.274009 13.430984,24.696006 13.430984,25.206992 13.430984,25.724998 13.246964,26.154014 12.879959,26.492026 12.505996,26.830039 12.030959,27.000022 11.453992,27.000022 10.876965,27.000022 10.399975,26.827048 10.016979,26.48104 9.6349595,26.122031 9.4449568,25.696006 9.4449569,25.206992 9.4449568,24.702048 9.6349595,24.281028 10.016979,23.943015 10.399975,23.604026 10.876965,23.435019 11.453992,23.435019z M11.550977,11.000022C12.220961,11.000022 12.842971,11.07302 13.419998,11.22103 13.996964,11.36904 14.498003,11.602012 14.925982,11.918052 15.355975,12.235007 15.690997,12.640037 15.933002,13.133994 16.172992,13.627036 16.293964,14.219016 16.293964,14.911033 16.293964,15.351035 16.243977,15.748008 16.142962,16.105002 16.040973,16.46102 15.894,16.797996 15.699969,17.115012 15.504961,17.431052 15.263018,17.736045 14.975969,18.028037 14.688982,18.318992 14.355973,18.620017 13.98201,18.930015 13.728959,19.138022 13.508987,19.33303 13.318985,19.513022 13.125991,19.693992 12.969009,19.872031 12.842971,20.047996 12.715957,20.224021 12.620986,20.412009 12.555984,20.610007 12.490981,20.807029 12.458999,21.033042 12.458999,21.284995 12.458999,21.45803 12.482985,21.633994 12.527968,21.814048 12.574965,21.995017 12.638015,22.146018 12.717971,22.268027L9.8769641,22.268027C9.8050036,22.081016 9.7489734,21.870017 9.7099719,21.636008 9.6689562,21.401999 9.6499742,21.180015 9.649974,20.972007 9.6499742,20.640037 9.6819566,20.336997 9.7469587,20.064048 9.8119617,19.791038 9.9090078,19.533042 10.039012,19.292014 10.16798,19.051047 10.329968,18.820029 10.524975,18.599998 10.719006,18.381003 10.945996,18.163047 11.206006,17.947043 11.479993,17.717002 11.719984,17.502036 11.922987,17.304038 12.129958,17.10604 12.302992,16.907004 12.448012,16.710044 12.592971,16.512046 12.701003,16.307029 12.771987,16.094016 12.842971,15.881003 12.879959,15.646018 12.879959,15.386008 12.879959,15.163047 12.840957,14.956016 12.761001,14.765037 12.680984,14.573997 12.568984,14.411033 12.419997,14.273032 12.272963,14.136008 12.094008,14.028037 11.879957,13.948997 11.667982,13.870017 11.431959,13.831016 11.172987,13.831016 10.610974,13.831016 10.027965,13.947043 9.4229842,14.182029 8.8180029,14.416038 8.2450042,14.770041 7.7049643,15.245994L7.7049643,11.994041C8.2609954,11.662009 8.8650001,11.414023 9.5199691,11.248008 10.174999,11.08303 10.852978,11.000022 11.550977,11.000022z M6.9999997,3.4140005L3.3829875,7.0310123 6.9999997,7.0310123z M8.9999996,2L8.9999996,9.0310109 2,9.0310109 2,29.999999 22,29.999999 22,2z M7.5860001,0L22,0C23.103,0,24,0.89700031,24,2L24,29.999999C24,31.103,23.103,31.999999,22,31.999999L2,31.999999C0.89699984,31.999999,0,31.103,0,29.999999L0,7.5859997z" />
  </g>
</svg>

