<svg xmlns="http://www.w3.org/2000/svg" width="108" height="100"
                            viewBox="0 0 108 100">
                            <path
                                d="M47.5 4.9h-2c0-2.2 1.8-4 4-4h7c2.2 0 4 1.8 4 4h-2c0-1.1-.9-2-2-2h-7c-1.1 0-2 .9-2 2zM70.1 29c-1-.8-2.5-.7-3.4.2l-4.1 4.1c-.4.4-1 .5-1.5.5h-7c-.3 0-.5-.2-.5-.4s.3-.6.5-.6h5c1.2 0 2-.8 2-2 0-1.3-.7-2-2-2h-6c-1.5 0-4.5-1.4-6.5-1.4s-4 .6-5.6 1.5l-5 3 3.5 8.5 2-1.8c.4-.4 1-.6 1.6-.5l8.9 1.2h9.9c1.1 0 2.1-.4 2.8-1.2l5.6-5.6c1-1 1-2.6 0-3.5-.1.1-.1.1-.2 0zm-48 30.9c-2.2 0-4 1.8-4 4s1.8 4 4 4 4-1.8 4-4-1.8-4-4-4zm0 9h-.2c-2.1 0-3.8 1.7-3.8 3.8v7.2h-7c-2.8 0-5 2.2-5 5v9.5c0 1.4 1.1 2.5 2.5 2.5s2.5-1.1 2.5-2.5v-7.5c0-1.1.9-2 2-2h11c1.1 0 2-.9 2-2v-10c0-2.2-1.8-4-4-4zm84.6 26.4l-12.5-8.6c.1-.2.1-.3.1-.5.4-3.4 1.1-8.3 1.2-9.9.2-3.1-2.2-3.9-4.7-4.5-1.1-.3-2.2-.2-2.9.8l.6 12.2-.1.7c-.3 1.8.6 3.6 2.1 4.6l.7.5 12.1 8.6c2.8 2.3 6.2-1.8 3.4-3.9z"
                                fill="#cdcdcd"></path>
                            <path
                                d="M89 84.3l3.6 4.9-4.5 8c-.9 2.2-3.5 1.8-4.6.3l-5.7-6.4c-2.3-2.7 1.4-5.8 3.7-3.1l3.4 3.6 4.1-7.3zm3.1-11l-6.7-5.4c-3.1-2.4-6.3 1.9-3.2 4.2l6.7 5.4c3 2.3 6.2-1.9 3.2-4.2zm8.5-7.5c-.4-2.4-2.7-4-5.2-3.7-2.5.4-4.2 2.6-3.9 5 .4 2.4 2.7 4 5.2 3.7s4.2-2.6 3.9-5z"
                                fill="#acacac"></path>
                            <path
                                d="M68.1 21.7V8c0-1.9-1.2-3.2-3.1-3.2H41.1C39.2 4.8 38 6 38 8v13.7c0 1.9 1.2 3.2 3.1 3.2H65c1.9 0 3.1-1.3 3.1-3.2zm-10.3-1.8l-.7.8-3.1-5.2-2.7 2.5.3 2.1-.4.5-1.4-2-2.1-1.1.5-.5 2.1.1 2.2-3.1-5.5-2.5.7-.8 6.4 1c2.5-3 4.5-3 4.5-3s.3 2-2.4 4.8l1.6 6.4zM13.1 62.4c0-1.9-1.6-3.5-3.5-3.5h-6c-1.9 0-3.5 1.6-3.5 3.5v9c0 1.9 1.6 3.5 3.5 3.5h6c1.9 0 3.5-1.6 3.5-3.5v-9zm-3 9c0 .3-.2.5-.5.5h-6c-.3 0-.5-.2-.5-.5v-9c0-.3.2-.5.5-.5h6c.3 0 .5.2.5.5v9zm21 2.5v9c0 3.9-3.1 7-7 7v7h-4v-7h-6c-1.1 0-2-.9-2-2s.9-2 2-2h10c1.7 0 3-1.3 3-3v-1h-13c-1.1 0-2-.9-2-2s.9-2 2-2h13v-4c0-1.1.9-2 2-2s2 .9 2 2zm54.1-11.7L82.9 65l-3.8 4.8-2.3 2.9c-.4.5-1.2.6-1.7.2L67.5 67c-.5-.4-.6-1.2-.2-1.7l8.4-10.6c.4-.5 1.2-.6 1.7-.2l7.6 5.9c.5.6.6 1.3.2 1.8z"
                                fill="#00bce4"></path>
                        </svg>