    <svg data-name="Layer 1" xmlns="http://www.w3.org/2000/svg" viewBox="0 0 40 48"><path fill="none" d="M0 0h40v48H0z"/><path d="M5 9h30a4 4 0 0 1 4 4v30a4 4 0 0 1-4 4H5a4 4 0 0 1-4-4V13a4 4 0 0 1 4-4z" stroke="#2d677f" fill="#418faf" stroke-width="2"/><path d="M4.54 36.5a4 4 0 0 0 4 4h22.93a4 4 0 0 0 4-4v-27H4.54z" stroke="#2d677f" fill="none"/><path d="M38.53 15.42l-.36-.19a2.64 2.64 0 0 0-3.68 1.23l-3.39 6.67V4.41c0-2.48-2.48-4.41-5-4.41H26a6.11 6.11 0 0 0-4.87 2.79V13.7c0 .8-.32 1.44-1.11 1.44s-1.11-.64-1.11-1.44V3a5.78 5.78 0 0 0-4.81-3h-.19c-2.47 0-5.05 1.93-5.05 4.41v18.75l-3.35-6.7a2.75 2.75 0 0 0-3.78-1.23l-.29.19a2.94 2.94 0 0 0-1.07 4L7.6 32.69a2.91 2.91 0 0 0 3.92 1.23h.15a4.52 4.52 0 0 0 2.24.67h12.24a4.52 4.52 0 0 0 2.23-.67h.13a2.92 2.92 0 0 0 3.92-1.24l7.2-13.3a2.94 2.94 0 0 0-1.1-4" fill="#00586c"/><path d="M28.46 36.6A8.43 8.43 0 1 1 20 28.15a8.44 8.44 0 0 1 8.43 8.45" fill="#006880"/></svg>
    