<?xml version="1.0" encoding="utf-8"?>
<svg xmlns="http://www.w3.org/2000/svg" height="48" width="48" viewBox="0 0 48 48">
  <g>
    <path id="path1" transform="rotate(0,24,24) translate(18.1530003547668,0) scale(1.5,1.5)  " fill="#98C455" d="M3.8979921,24.20401C6.0509908,24.20401 7.7959997,25.949005 7.7959997,28.10199 7.7959997,30.255005 6.0509908,32 3.8979921,32 1.7449938,32 -2.0837479E-07,30.255005 0,28.10199 -2.0837479E-07,25.949005 1.7449938,24.20401 3.8979921,24.20401z M3.8979921,12.102997C6.0509908,12.102997 7.7959997,13.847992 7.7959997,16.001007 7.7959997,18.153992 6.0509908,19.899017 3.8979921,19.899017 1.7449938,19.899017 -2.0837479E-07,18.153992 0,16.001007 -2.0837479E-07,13.847992 1.7449938,12.102997 3.8979921,12.102997z M3.8979921,0C6.0509908,0 7.7959997,1.7460022 7.7959997,3.8980103 7.7959997,6.0509949 6.0509908,7.79599 3.8979921,7.79599 1.7449938,7.79599 -2.0837479E-07,6.0509949 0,3.8980103 -2.0837479E-07,1.7460022 1.7449938,0 3.8979921,0z" />
  </g>
</svg>

