<svg xmlns="http://www.w3.org/2000/svg" viewBox="0 0 64 64" width="64" height="64"  id="day-mist">
<path fill="#FFF" d="M56.997 30h-3.999a2 2 0 0 1 0-4h3.999a2 2 0 0 1 0 4zm-7.855-13.312a2 2 0 1 1-2.828-2.828l2.828-2.828a1.998 1.998 0 1 1 2.827 2.828l-2.827 2.828zm-2.95 15.607A11.968 11.968 0 0 1 48.305 36h-4.387a7.987 7.987 0 0 0-6.92-4 7.923 7.923 0 0 0-4.334 1.291C31.435 27.975 26.692 24 21.001 24c-6.627 0-11.999 5.373-11.999 12H5.003c0-8.836 7.162-16 15.998-16 1.572 0 3.089.232 4.523.655 2.194-2.827 5.617-4.653 9.475-4.653 6.627 0 11.999 5.371 11.999 11.998a11.9 11.9 0 0 1-.806 4.295zM35 20.002a7.961 7.961 0 0 0-5.662 2.351 16.11 16.11 0 0 1 5.629 5.853C35.631 28.092 36.304 28 37 28c2.125 0 4.118.56 5.851 1.527A7.995 7.995 0 0 0 35 20.002zm0-8a2 2 0 0 1-2-2V6.004a2 2 0 0 1 4 0v3.998a2 2 0 0 1-2 2zm-14.142 4.686l-2.826-2.828a2 2 0 0 1 2.826-2.828l2.828 2.828a2 2 0 1 1-2.828 2.828zM7.004 39.998h39.995a2 2 0 0 1 0 4H7.004a2 2 0 0 1 0-4zm0 8h39.995a2 2 0 0 1 0 4H7.004a2 2 0 0 1 0-4zm0 7.998h39.995a2 2 0 0 1 0 4H7.004a2 2 0 0 1 0-4z"/>
</svg>