  <svg xmlns="http://www.w3.org/2000/svg" viewBox="0 0 64 64" width="64" height="64"  id="night-thunderstorm">
        <path fill="#FFF" d="M51.318 26.616a11.968 11.968 0 0 1 2.004 4.883h-.004c.109.652.18 1.318.18 2 0 6.627-5.371 12-11.998 12h-1.062l3.584-4.412c3.182-1.057 5.479-4.051 5.479-7.588 0-.689-.1-1.357-.264-2-.891-3.447-4.012-5.998-7.736-5.998-1.602 0-3.082.48-4.334 1.291-1.23-5.316-5.975-9.291-11.664-9.291-6.627 0-11.998 5.373-11.998 12 0 .684.07 1.348.18 1.998h-.015c.764 4.549 4.088 8.225 8.438 9.506l-1.35 3.777A16.002 16.002 0 0 1 9.641 31.499a16.061 16.061 0 0 1-.139-1.998c0-8.836 7.164-15.998 15.998-15.998 2.004 0 3.914.375 5.68 1.047 1.635-4.682 6.08-8.047 11.318-8.047.756 0 1.492.078 2.209.211a7.94 7.94 0 0 0-.209 1.789 7.999 7.999 0 0 0 8 7.998c.615 0 1.211-.076 1.787-.207.135.717.213 1.453.213 2.207 0 3.133-1.211 5.978-3.18 8.115zM40.713 10.71c-2.9.664-5.176 2.91-5.924 5.775a16.092 16.092 0 0 1 4.678 5.221c.664-.113 1.338-.205 2.033-.205 2.619 0 5.033.85 7.006 2.271a8.002 8.002 0 0 0 1.785-3.482 11.998 11.998 0 0 1-9.578-9.58zM29.502 31.499H39.5l-5.998 10H40.5L27.502 57.497l3.6-11.998h-6.6l5-14z"/>
      </svg>