  <svg xmlns="http://www.w3.org/2000/svg" viewBox="0 0 64 64" width="64" height="64" id="day-rain">
    <path fill="#FFF" d="M56.998 28.772h-4a2 2 0 1 1 0-3.998h4a1.999 1.999 0 0 1 0 3.998zm-7.857-13.311a1.998 1.998 0 1 1-2.828-2.827l2.828-2.828a2 2 0 1 1 2.828 2.828l-2.828 2.827zm-2.948 15.606A11.947 11.947 0 0 1 49 38.774c0 5.227-3.35 9.659-8.014 11.305a6.967 6.967 0 0 0-1.223-3.807c3.055-1.127 5.234-4.056 5.234-7.498a7.999 7.999 0 0 0-7.998-8.001 7.945 7.945 0 0 0-4.334 1.291c-1.232-5.315-5.973-9.29-11.664-9.29-6.627 0-11.998 5.372-11.998 11.999 0 1.404.254 2.747.697 4.001h.014a12.036 12.036 0 0 0 5.396 6.444l-.059.058a6.953 6.953 0 0 0-1.873 3.444 16.012 16.012 0 0 1-7.65-9.946 15.998 15.998 0 0 1-.525-4.001c0-8.836 7.164-15.998 15.998-15.998 1.572 0 3.09.232 4.523.654 2.195-2.827 5.617-4.654 9.475-4.654 6.627 0 12 5.372 12 11.998a11.973 11.973 0 0 1-.806 4.294zM35 18.775a7.964 7.964 0 0 0-5.662 2.351 16.11 16.11 0 0 1 5.629 5.853c.664-.113 1.336-.205 2.033-.205 2.125 0 4.117.56 5.85 1.527A7.995 7.995 0 0 0 35 18.775zm0-8a2 2 0 0 1-2-1.999V4.777a2 2 0 0 1 4 0v3.999a2 2 0 0 1-2 1.999zm-14.139 4.686l-2.828-2.827a2 2 0 1 1 2.828-2.828l2.826 2.828a1.998 1.998 0 1 1-2.826 2.827zm-.859 30.522l2.121 2.121a2.998 2.998 0 1 1-4.242 0l2.121-2.121zM27 53.981l2.121 2.121a2.998 2.998 0 1 1-4.242 0L27 53.981zm7-7.998l2.121 2.121a2.998 2.998 0 1 1-4.242 0L34 45.983z"/>
</svg>