<svg xmlns="http://www.w3.org/2000/svg" viewBox="0 0 64 64" width="64" height="64" id="day-shower-rain">
    <path fill="#FFF" d="M56.996 28h-4a2 2 0 0 1 0-4h4a2 2 0 0 1 0 4zm-7.857-13.312a2 2 0 1 1-2.828-2.828l2.828-2.828a2 2 0 1 1 2.828 2.828l-2.828 2.828zm-2.948 15.607a11.937 11.937 0 0 1 2.805 7.703c0 5.224-3.342 9.652-7.998 11.301v-4.381a7.984 7.984 0 0 0 4-6.92 8 8 0 0 0-8-7.998 7.92 7.92 0 0 0-4.333 1.291C31.435 25.974 26.692 22 21 22c-6.627 0-11.997 5.373-11.997 11.998 0 3.551 1.551 6.729 4 8.926v4.916c-4.777-2.769-8-7.922-8-13.842 0-8.834 7.161-15.996 15.997-15.996 1.572 0 3.091.23 4.523.653 2.195-2.827 5.617-4.653 9.474-4.653 6.627 0 11.998 5.371 11.998 11.998a11.9 11.9 0 0 1-.804 4.295zM34.998 18.002a7.97 7.97 0 0 0-5.662 2.35 16.087 16.087 0 0 1 5.628 5.854c.665-.114 1.339-.206 2.034-.206 2.125 0 4.119.56 5.85 1.527.096-.494.15-1.004.15-1.527a7.999 7.999 0 0 0-8-7.998zm0-8a2 2 0 0 1-2-2v-4a1.999 1.999 0 0 1 4 0v4c0 1.105-.894 2-2 2zm-14.14 4.686L18.03 11.86a2.003 2.003 0 0 1 0-2.828 2.003 2.003 0 0 1 2.828 0l2.828 2.828a2 2 0 1 1-2.828 2.828zM19 37.998a2 2 0 0 1 2 2v15.998a2 2 0 0 1-4 0V39.998c0-1.103.897-2 2-2zm8 4a2 2 0 0 1 2 2v15.998a2 2 0 0 1-4 0V43.998a2 2 0 0 1 2-2zm7.998-4a2 2 0 0 1 2 2v15.998a2 2 0 1 1-4 0V39.998c.001-1.103.897-2 2-2z"/>
</svg>