  <svg xmlns="http://www.w3.org/2000/svg" viewBox="0 0 64 64" width="64" height="64"  id="night-rain">
        <path fill="#FFF" d="M51.318 27.392a11.928 11.928 0 0 1 2.178 6.883c0 5.227-3.348 9.659-8.012 11.305a6.95 6.95 0 0 0-1.223-3.807c3.055-1.128 5.234-4.056 5.234-7.498 0-4.418-3.58-8-7.998-8a7.937 7.937 0 0 0-4.334 1.291c-1.23-5.316-5.973-9.291-11.664-9.291-6.627 0-12 5.373-12 12 0 1.403.256 2.745.699 4h.016a12.04 12.04 0 0 0 5.393 6.444l-.057.058a6.934 6.934 0 0 0-1.871 3.444 16.015 16.015 0 0 1-7.652-9.946 15.996 15.996 0 0 1-.523-4c0-8.836 7.16-15.998 15.996-15.998 2.004 0 3.914.375 5.68 1.047 1.637-4.683 6.08-8.047 11.318-8.047.756 0 1.492.078 2.207.211a8.056 8.056 0 0 0-.207 1.789 7.999 7.999 0 0 0 8 7.998c.615 0 1.211-.076 1.787-.207.133.717.211 1.452.211 2.207 0 3.134-1.211 5.981-3.178 8.117zM40.709 11.485c-2.898.664-5.174 2.909-5.924 5.774a16.08 16.08 0 0 1 4.68 5.222c.664-.113 1.338-.205 2.033-.205 2.617 0 5.031.849 7.006 2.271a8.003 8.003 0 0 0 1.785-3.481 12.005 12.005 0 0 1-9.58-9.581zM24.5 41.483l2.121 2.121c1.172 1.172 1.172 3.07 0 4.242s-3.07 1.172-4.242 0-1.172-3.07 0-4.242l2.121-2.121zm6.998 7.998l2.121 2.121a2.998 2.998 0 1 1-4.24 0l2.119-2.121zm7-7.998l2.121 2.121c1.172 1.172 1.172 3.07 0 4.242s-3.07 1.172-4.242 0-1.172-3.07 0-4.242l2.121-2.121z"/>
      </svg>