<svg xmlns="http://www.w3.org/2000/svg" viewBox="0 0 64 64" width="64" height="64"  id="day-thunderstorm">
<path fill="#FFF" d="M56.996 28h-3.999a2 2 0 0 1 0-4h3.999a2 2 0 0 1 0 4zm-7.855-13.312a2 2 0 1 1-2.828-2.828l2.828-2.828a1.998 1.998 0 1 1 2.827 2.828l-2.827 2.828zm-2.95 15.607a11.959 11.959 0 0 1 2.634 5.703h-.009c.109.652.181 1.318.181 2 0 6.627-5.372 12-11.998 12h-1.062l3.584-4.412c3.181-1.057 5.478-4.053 5.478-7.588 0-.69-.099-1.358-.263-2C43.848 32.551 40.725 30 37 30a7.923 7.923 0 0 0-4.334 1.291C31.436 25.975 26.693 22 21.002 22c-6.627 0-11.999 5.373-11.999 12 0 .682.07 1.348.181 1.998H9.17c.764 4.549 4.088 8.224 8.438 9.506l-1.35 3.777A16.002 16.002 0 0 1 5.143 35.998 16.061 16.061 0 0 1 5.004 34c0-8.836 7.162-16 15.998-16 1.572 0 3.089.232 4.523.655 2.195-2.827 5.617-4.653 9.475-4.653 6.627 0 11.999 5.371 11.999 11.998a11.945 11.945 0 0 1-.808 4.295zM34.999 18.002a7.961 7.961 0 0 0-5.662 2.351 16.087 16.087 0 0 1 5.629 5.853c.664-.114 1.337-.206 2.033-.206 2.125 0 4.118.56 5.851 1.527a7.995 7.995 0 0 0-7.851-9.525zm0-8a2 2 0 0 1-2-2V4.004a2 2 0 0 1 4 0v3.998a2 2 0 0 1-2 2zm-14.142 4.686l-2.826-2.828a2 2 0 0 1 2.826-2.828l2.828 2.828a2 2 0 1 1-2.828 2.828zM25 35.998h9.999l-5.999 10h6.999L23.001 61.996l3.601-11.998h-6.601l4.999-14z"/>
</svg>