  <svg xmlns="http://www.w3.org/2000/svg" viewBox="0 0 64 64" width="64" height="64"  id="night-snow">
        <path fill="#FFF" d="M51.316 28.619a11.928 11.928 0 0 1 2.181 6.881c0 5.223-3.343 9.652-7.998 11.303v-4.381a7.995 7.995 0 0 0 3.999-6.922 8 8 0 0 0-7.999-8c-1.601 0-3.084.48-4.334 1.291-1.231-5.316-5.974-9.291-11.664-9.291-6.627 0-11.998 5.373-11.998 12 0 3.549 1.55 6.73 3.999 8.924v4.916c-4.777-2.768-7.999-7.922-7.999-13.84 0-8.834 7.162-15.998 15.998-15.998 2.002 0 3.914.375 5.681 1.047 1.635-4.682 6.077-8.047 11.317-8.047.755 0 1.489.078 2.207.211a8.056 8.056 0 0 0-.207 1.789 7.997 7.997 0 0 0 7.998 7.998c.616 0 1.213-.074 1.789-.207.133.717.211 1.453.211 2.207 0 3.137-1.211 5.98-3.181 8.119zM40.71 12.711c-2.899.664-5.174 2.91-5.924 5.775a16.096 16.096 0 0 1 4.68 5.221c.664-.113 1.336-.205 2.033-.205 2.617 0 5.033.85 7.005 2.271a8.008 8.008 0 0 0 1.786-3.482 11.998 11.998 0 0 1-9.58-9.58zM23.501 39.5a2 2 0 1 1-.001 4.001A2 2 0 0 1 23.5 39.5zm0 8a1.998 1.998 0 1 1 0 3.998 2 2 0 1 1 0-3.998zm7.999-4a2 2 0 1 1-.001 4.001A2 2 0 0 1 31.5 43.5zm0 7.998a2 2 0 1 1-.001 4.001 2 2 0 0 1 .001-4.001zM39.499 39.5a2 2 0 1 1-.001 4.001 2 2 0 0 1 .001-4.001zm0 8a1.998 1.998 0 1 1 0 3.998 2 2 0 1 1 0-3.998z"/>
      </svg>