<svg xmlns="http://www.w3.org/2000/svg" viewBox="0 0 64 64" width="64" height="64" id="day-broken-clouds">
<path fill="#FFF" d="M20.26 51.109c-8.836 0-15.998-7.162-15.998-15.997 0-8.836 7.162-15.998 15.998-15.998 6.004 0 11.229 3.312 13.965 8.203.664-.113 1.338-.205 2.033-.205 6.627 0 11.998 5.373 11.998 11.999 0 6.625-5.371 11.998-11.998 11.998H20.26zm15.998-4a8 8 0 0 0 8-7.998 8 8 0 0 0-8-7.999 7.944 7.944 0 0 0-4.334 1.291c-1.23-5.315-5.973-9.29-11.664-9.29-6.627 0-11.998 5.372-11.998 11.999 0 6.626 5.371 11.997 11.998 11.997h15.998zm12.739-27.477c-.47 0-.937.031-1.398.093a14.017 14.017 0 0 0-12.082-6.834c-3.413 0-6.546 1.22-8.989 3.244a19.966 19.966 0 0 1 4.204 1.96 10.054 10.054 0 0 1 4.785-1.204c4.796 0 8.792 3.349 9.828 7.829a6.704 6.704 0 0 1 3.652-1.088 6.741 6.741 0 0 1 6.741 6.74 6.734 6.734 0 0 1-3.73 6.024c.151.885.248 1.788.248 2.715 0 .513-.03 1.019-.077 1.52 4.374-1.359 7.56-5.444 7.56-10.259-.001-5.922-4.819-10.74-10.742-10.74z"/>
</svg>