  <svg xmlns="http://www.w3.org/2000/svg" viewBox="0 0 64 64" width="64" height="64"  id="night-mist">
        <path fill="#FFF" d="M51.318 28.616a12.067 12.067 0 0 1 1.469 2.885h.02-4.387a7.991 7.991 0 0 0-6.922-4c-1.6 0-3.082.48-4.332 1.291-1.23-5.316-5.975-9.291-11.666-9.291-6.625 0-11.998 5.373-11.998 12h-4c0-8.836 7.164-15.998 15.998-15.998 2.004 0 3.914.375 5.682 1.047 1.635-4.683 6.078-8.047 11.316-8.047.756 0 1.492.078 2.209.211a7.94 7.94 0 0 0-.209 1.789 7.999 7.999 0 0 0 8 7.998c.615 0 1.211-.076 1.787-.207.135.717.213 1.453.213 2.207 0 3.135-1.213 5.978-3.18 8.115zM40.711 12.71c-2.898.664-5.174 2.91-5.924 5.774a16.094 16.094 0 0 1 4.678 5.222c.664-.113 1.34-.205 2.033-.205 2.619 0 5.033.849 7.006 2.271a7.97 7.97 0 0 0 1.785-3.482 12.002 12.002 0 0 1-9.578-9.58zM11.502 35.499h39.996a2 2 0 0 1 0 4H11.502a2 2 0 0 1 0-4zm0 8h39.996a2 2 0 0 1 0 4H11.502a2 2 0 0 1 0-4zm0 7.998h39.996a2 2 0 0 1 0 4H11.502a2 2 0 0 1 0-4z"/>
      </svg>