  <svg xmlns="http://www.w3.org/2000/svg" viewBox="0 0 64 64" width="64" height="64"  id="day-few-clouds" >
    <path fill="#FFF" d="M56.997 33.999h-4a2 2 0 0 1 0-3.998h4a2 2 0 0 1 2 1.998 2 2 0 0 1-2 2zm-7.858-13.311a1.998 1.998 0 1 1-2.828-2.827l2.828-2.828a2 2 0 1 1 2.828 2.828l-2.828 2.827zm-2.947 15.606a11.946 11.946 0 0 1 2.807 7.705c0 6.625-5.373 11.998-12 11.998H21.001c-8.834 0-15.997-7.162-15.997-15.998S12.167 24.001 21 24.001c1.572 0 3.091.232 4.523.654 2.195-2.827 5.618-4.654 9.475-4.654 6.627 0 12 5.373 12 11.998a11.978 11.978 0 0 1-.806 4.295zm-37.19 3.705c0 6.627 5.371 11.998 11.998 11.998h15.998a7.998 7.998 0 0 0 7.998-7.998c0-4.418-3.58-8-7.998-8a7.948 7.948 0 0 0-4.334 1.291c-1.23-5.315-5.973-9.289-11.664-9.289-6.626 0-11.998 5.371-11.998 11.998zm25.997-15.998a7.967 7.967 0 0 0-5.662 2.35 16.105 16.105 0 0 1 5.629 5.854c.664-.113 1.337-.205 2.033-.205 2.125 0 4.119.56 5.85 1.527.096-.494.15-1.004.15-1.527a8 8 0 0 0-8-7.999zm0-8a2 2 0 0 1-2-1.999v-3.999a2 2 0 0 1 4 0v3.999a1.999 1.999 0 0 1-2 1.999zm-14.141 4.687l-2.826-2.827a2 2 0 0 1 2.826-2.828l2.828 2.828a1.998 1.998 0 1 1-2.828 2.827z"/>
</svg>