  <svg xmlns="http://www.w3.org/2000/svg" viewBox="0 0 64 64" width="64" height="64"  id="night-few-clouds">
        <path fill="#FFF" d="M51.319 32.617a11.942 11.942 0 0 1 2.178 6.883c0 6.625-5.371 11.998-11.998 11.998H25.501c-8.836 0-15.997-7.162-15.997-15.998S16.665 19.502 25.5 19.502c2.003 0 3.914.375 5.681 1.047 1.636-4.682 6.078-8.047 11.317-8.047.756 0 1.492.078 2.207.213a8.024 8.024 0 0 0-.207 1.787 8 8 0 0 0 7.998 8c.617 0 1.213-.076 1.789-.209.133.717.211 1.453.211 2.209a11.938 11.938 0 0 1-3.177 8.115zM13.502 35.5c0 6.627 5.371 11.998 11.998 11.998h15.998a7.998 7.998 0 0 0 7.998-7.998c0-4.418-3.58-8-7.998-8a7.948 7.948 0 0 0-4.334 1.291c-1.231-5.315-5.973-9.289-11.664-9.289-6.626 0-11.998 5.371-11.998 11.998zm19.549-14.096h.002-.002zm7.658-4.695c-2.899.664-5.174 2.91-5.924 5.775a16.085 16.085 0 0 1 4.68 5.221c.664-.113 1.337-.205 2.033-.205 2.617 0 5.033.85 7.005 2.271a7.994 7.994 0 0 0 1.786-3.481 12.003 12.003 0 0 1-9.58-9.581z"/>
      </svg>