  <svg xmlns="http://www.w3.org/2000/svg" viewBox="0 0 64 64" width="64" height="64" id="night-clear-sky">
        <path fill="#FFF" d="M30.732 20.066c.663 6.972 6.229 12.537 13.201 13.2C43.299 39.29 38.189 44 32 44c-6.617 0-12-5.383-12-12 0-6.188 4.709-11.298 10.732-11.934M32 16c-8.837 0-16 7.162-16 16s7.163 16 16 16c8.835 0 16-7.162 16-16 0-1.008-.104-1.987-.282-2.943-.769.175-1.565.276-2.384.276-5.892 0-10.668-4.773-10.668-10.666 0-.821.102-1.618.277-2.386A16.108 16.108 0 0 0 32 16z"/>
      </svg>