  <svg xmlns="http://www.w3.org/2000/svg" viewBox="0 0 64 64" width="64" height="64"  id="day-snow">
    <path fill="#FFFFFF" d="M56.998,30h-4c-1.105,0-2-0.896-2-2s0.895-2,2-2h4c1.104,0,1.998,0.896,1.998,2
    C58.996,29.105,58.102,30,56.998,30z M49.141,16.688c-0.781,0.781-2.047,0.781-2.828,0s-0.781-2.047,0-2.828l2.828-2.828
    c0.781-0.78,2.047-0.78,2.828,0c0.781,0.781,0.781,2.048,0,2.828L49.141,16.688z M46.191,32.295L46.191,32.295
    c1.75,2.084,2.807,4.77,2.807,7.703c0,5.224-3.344,9.652-7.998,11.303V46.92c2.389-1.385,3.998-3.963,3.998-6.922
    C44.998,35.582,41.418,32,37,32c-1.602,0-3.084,0.479-4.334,1.291C31.434,27.975,26.691,24,21.002,24
    c-6.627,0-11.998,5.373-11.998,12c0,3.549,1.549,6.729,3.998,8.924v4.916C8.227,47.071,5.004,41.918,5.004,36
    c0-8.836,7.162-15.999,15.998-15.999c1.572,0,3.09,0.231,4.521,0.654c2.195-2.827,5.619-4.653,9.477-4.653
    c6.627,0,11.998,5.371,11.998,11.998C46.998,29.516,46.705,30.959,46.191,32.295z M35,20.002c-2.213,0-4.215,0.897-5.662,2.351
    c2.34,1.436,4.285,3.453,5.629,5.854c0.664-0.113,1.336-0.205,2.033-0.205c2.125,0,4.117,0.559,5.85,1.526l0,0
    c0.096-0.494,0.15-1.004,0.15-1.526C43,23.583,39.418,20.002,35,20.002z M35,12.003c-1.105,0-2-0.896-2-2V6.004c0-1.104,0.895-2,2-2
    c1.104,0,2,0.896,2,2v3.999C37,11.107,36.104,12.003,35,12.003z M20.857,16.688l-2.828-2.828c-0.779-0.78-0.779-2.047,0-2.828
    c0.781-0.78,2.049-0.78,2.828,0l2.828,2.828c0.781,0.781,0.781,2.047,0,2.828C22.906,17.469,21.641,17.469,20.857,16.688z
        M19.002,43.998c1.104,0,2,0.896,2,2c0,1.105-0.896,2-2,2c-1.105,0-2-0.895-2-2C17.002,44.895,17.896,43.998,19.002,43.998z
        M19.002,51.998c1.104,0,2,0.896,2,2s-0.896,1.998-2,1.998c-1.105,0-2-0.895-2-1.998C17.002,52.893,17.896,51.998,19.002,51.998z
        M27.002,47.998c1.104,0,1.998,0.896,1.998,2s-0.896,2-1.998,2c-1.105,0-2-0.896-2-2C25.002,48.893,25.896,47.998,27.002,47.998z
        M27.002,55.996c1.104,0,1.998,0.896,1.998,2c0,1.105-0.896,2-1.998,2c-1.105,0-2-0.895-2-2
    C25.002,56.893,25.896,55.996,27.002,55.996z M35,43.998c1.104,0,2,0.896,2,2c0,1.105-0.896,2-2,2c-1.105,0-2-0.895-2-2 C33,44.895,33.896,43.998,35,43.998z M35,51.998c1.104,0,2,0.896,2,2s-0.896,1.998-2,1.998c-1.105,0-2-0.895-2-1.998 C33,52.893,33.896,51.998,35,51.998z"/>
    </svg>