  <svg xmlns="http://www.w3.org/2000/svg" viewBox="0 0 64 64" width="64" height="64"  id="night-shower-rain">
    <path fill="#FFF" d="M31.5 37.499a2 2 0 0 0-2 2v15.998a2 2 0 0 0 4 0V39.499a2 2 0 0 0-2-2zm7.998-4a1.999 1.999 0 0 0-1.998 2v15.998a2 2 0 1 0 3.998 0V35.499a2 2 0 0 0-2-2zm-15.997 0a2 2 0 0 0-1.999 2v15.998a2 2 0 1 0 3.999 0V35.499c0-1.103-.896-2-2-2zm30.995-14.998c0-.754-.078-1.49-.211-2.207a8.038 8.038 0 0 1-1.787.207c-4.418 0-8-3.58-8-7.998 0-.615.076-1.213.207-1.789a12.046 12.046 0 0 0-2.207-.211c-5.24 0-9.683 3.364-11.316 8.047a15.941 15.941 0 0 0-5.681-1.047c-8.835 0-15.998 7.162-15.998 15.996 0 5.92 3.224 11.074 8 13.842v-4.916c-2.45-2.197-4-5.375-4-8.926 0-6.625 5.371-11.998 11.998-11.998 5.691 0 10.435 3.974 11.665 9.291a7.919 7.919 0 0 1 4.332-1.291c4.418 0 8 3.58 8 7.998a7.984 7.984 0 0 1-4 6.92V44.8c4.656-1.647 8-6.078 8-11.301 0-2.562-.811-4.933-2.18-6.882a11.944 11.944 0 0 0 3.178-8.116zm-5.992 5.271a11.924 11.924 0 0 0-7.006-2.271c-.695 0-1.369.092-2.033.205a16.067 16.067 0 0 0-4.678-5.221c.75-2.865 3.023-5.111 5.924-5.775a12 12 0 0 0 9.578 9.58 8.007 8.007 0 0 1-1.785 3.482z"/>
    </svg>